# xmcd CD database file
#
# Track frame offsets:
#	150
#	14796
#	29516
#	44239
#	63415
#	74329
#	87988
#	103024
#	115935
#	129603
#	146584
#	158926
#	174022
#	186004
#
# Disc length: 2653 seconds
#
# Revision: 0
# Processed by: cddbd v1.5.2PL0 Copyright (c) Steve Scherf et al.
# Submitted via: CDex 1.70beta2
#
DISCID=cc0a5b0e
DTITLE=django reinhardt - Giants of Jazz
DYEAR=2003
DGENRE=Jazz
TTITLE0=nuages
TTITLE1=georgia on my mind
TTITLE2=minor swing
TTITLE3=nympheas
TTITLE4=swing guitars
TTITLE5=crepuscule
TTITLE6=manoir de mes reves
TTITLE7=place de brouckere
TTITLE8=daphne
TTITLE9=brick top
TTITLE10=rose room
TTITLE11=swing 39
TTITLE12=rendez vous sous la pluie
TTITLE13=djangology
EXTD=YEAR: 2003
EXTT0=
EXTT1=
EXTT2=
EXTT3=
EXTT4=
EXTT5=
EXTT6=
EXTT7=
EXTT8=
EXTT9=
EXTT10=
EXTT11=
EXTT12=
EXTT13=
PLAYORDER=
